<?xml version="1.0" encoding="UTF-8"?>
<svg width="48px" height="48px" viewBox="0 0 48 48" version="1.1" xmlns="http://www.w3.org/2000/svg" xmlns:xlink="http://www.w3.org/1999/xlink">
    <!-- Generator: Sketch 46.2 (44496) - http://www.bohemiancoding.com/sketch -->
    <title>dropOffMarker</title>
    <desc>Created with Sketch.</desc>
    <defs></defs>
    <g id="Symbols" stroke="none" stroke-width="1" fill="none" fill-rule="evenodd">
        <g id="dropOffMarker">
            <g>
                <rect id="Rectangle" x="0" y="0" width="48" height="48"></rect>
                <g id="pickup" transform="translate(3.000000, 0.000000)">
                    <g id="Combined-Shape">
                        <g id="path-1-link" fill="#0BCE35">
                            <path d="M26.0114105,41.8472289 C31.9621135,41.4759535 37.1535951,40.4279524 38.8181818,38.7032258 C43.0606061,34.3075269 43.0606061,7.6924731 38.8181818,3.29677417 C34.5757576,-1.09892476 7.42424244,-1.0989247 3.1818182,3.2967742 C-1.06060605,7.6924731 -1.06060607,34.3075269 3.18181817,38.7032258 C4.84537719,40.4268876 10.0314775,41.4746592 15.9775687,41.8465405 C17.2905844,44.2194398 19.6181926,48.0328646 21,48 C22.3779496,47.9672271 24.6964264,44.199719 26.0114105,41.8472289 Z" id="path-1"></path>
                        </g>
                        <path d="M25.1385235,41.3593066 L25.4046895,40.8831389 L25.9491397,40.8491696 C32.1142088,40.4645195 36.7765836,39.3785977 38.0986414,38.0087752 C41.9671195,34.0005327 41.9671195,7.99946724 38.0986414,3.99122475 C34.2494107,0.00292505888 7.75058933,0.00292509886 3.9013586,3.99122478 C0.0328804836,7.99946724 0.0328804591,34.0005327 3.90135857,38.0087752 C5.22255146,39.3777015 9.88002314,40.463233 16.0399889,40.8484905 L16.5871281,40.8827098 L16.8525484,41.3623809 C18.5919981,44.5059373 20.4408336,47.0130163 20.9762229,47.0002827 C21.5445939,46.9867647 23.3858758,44.4947714 25.1385235,41.3593066 Z" id="Shape" stroke="#078C24" stroke-width="2"></path>
                    </g>
                    <g id="Group-2" transform="translate(7.000000, 7.000000)">
                        <rect id="Background" x="0" y="0" width="28" height="28"></rect>
                        <path d="M6.99996817,3.5 L6.99996817,3.5 C7.6442828,3.5 8.166603,4.02232021 8.166603,4.66663483 L8.166603,23.3333652 L8.166603,23.3333652 C8.166603,23.9776798 7.6442828,24.5 6.99996817,24.5 C6.35565354,24.5 5.83333333,23.9776798 5.83333333,23.3333652 L5.83333333,4.66663483 L5.83333333,4.66663483 C5.83333333,4.02232021 6.35565354,3.5 6.99996817,3.5 L6.99996817,3.5 Z M9.33333333,4.66666667 L22.3030611,4.66672565 L22.3030611,4.66672565 C22.6252272,4.66672711 22.8863932,4.92789553 22.8863918,5.25006163 C22.8863913,5.35578637 22.8576576,5.45952329 22.8032626,5.55018151 L20.1934804,9.89981862 L20.1934804,9.89981862 C19.9718027,10.2692814 19.9718027,10.7308459 20.1934804,11.1003087 L22.803257,15.4499365 L22.803257,15.4499365 C22.9690101,15.7261916 22.8794305,16.0845101 22.6031753,16.2502632 C22.5125156,16.304659 22.4087767,16.3333928 22.3030501,16.3333923 L9.33333333,16.3333333 L9.33333333,4.66666667 Z" id="Combined-Shape" fill="#FFFFFF" fill-rule="nonzero"></path>
                    </g>
                </g>
            </g>
        </g>
    </g>
</svg>