<?xml version="1.0" encoding="UTF-8"?>
<svg width="48px" height="48px" viewBox="0 0 48 48" version="1.1" xmlns="http://www.w3.org/2000/svg" xmlns:xlink="http://www.w3.org/1999/xlink">
    <!-- Generator: Sketch 46.2 (44496) - http://www.bohemiancoding.com/sketch -->
    <title>pickUpMarker</title>
    <desc>Created with Sketch.</desc>
    <defs></defs>
    <g id="Symbols" stroke="none" stroke-width="1" fill="none" fill-rule="evenodd">
        <g id="pickUpMarker">
            <g>
                <rect id="Rectangle" x="0" y="0" width="48" height="48"></rect>
                <g id="pickup" transform="translate(3.000000, 0.000000)">
                    <g id="Combined-Shape">
                        <g id="path-1-link" fill="#FFB11F">
                            <path d="M26.0114105,41.8472289 C31.9621135,41.4759535 37.1535951,40.4279524 38.8181818,38.7032258 C43.0606061,34.3075269 43.0606061,7.6924731 38.8181818,3.29677417 C34.5757576,-1.09892476 7.42424244,-1.0989247 3.1818182,3.2967742 C-1.06060605,7.6924731 -1.06060607,34.3075269 3.18181817,38.7032258 C4.84537719,40.4268876 10.0314775,41.4746592 15.9775687,41.8465405 C17.2905844,44.2194398 19.6181926,48.0328646 21,48 C22.3779496,47.9672271 24.6964264,44.199719 26.0114105,41.8472289 Z" id="path-1"></path>
                        </g>
                        <path d="M25.1385235,41.3593066 L25.4046895,40.8831389 L25.9491397,40.8491696 C32.1142088,40.4645195 36.7765836,39.3785977 38.0986414,38.0087752 C41.9671195,34.0005327 41.9671195,7.99946724 38.0986414,3.99122475 C34.2494107,0.00292505888 7.75058933,0.00292509886 3.9013586,3.99122478 C0.0328804836,7.99946724 0.0328804591,34.0005327 3.90135857,38.0087752 C5.22255146,39.3777015 9.88002314,40.463233 16.0399889,40.8484905 L16.5871281,40.8827098 L16.8525484,41.3623809 C18.5919981,44.5059373 20.4408336,47.0130163 20.9762229,47.0002827 C21.5445939,46.9867647 23.3858758,44.4947714 25.1385235,41.3593066 Z" id="Shape" stroke="#D9961A" stroke-width="2"></path>
                    </g>
                    <g id="Group-2-Copy" transform="translate(7.000000, 7.000000)">
                        <rect id="Background" x="0" y="0" width="28" height="28"></rect>
                        <path d="M24.5,15.1666667 L24.5,22.2638889 C24.5,22.8545267 24.0211934,23.3333333 23.4305556,23.3333333 L4.74768519,23.3333333 L4.74768519,23.3333333 C4.05860768,23.3333333 3.5,22.7747256 3.5,22.0856481 L3.5,15.1666667 L2.33333333,15.1666667 L2.33333333,12.8333333 L3.5,8.16665208 L24.5,8.16665208 L25.6666667,12.8333333 L25.6666667,15.1666667 L24.5,15.1666667 Z M3.76736111,4.66666667 L24.2326389,4.66666667 L24.2326389,4.66666667 C24.3802984,4.66666667 24.5,4.78636831 24.5,4.93402778 L24.5,7 L3.5,7 L3.5,4.93402778 L3.5,4.93402778 C3.5,4.78636831 3.61970165,4.66666667 3.76736111,4.66666667 L3.76736111,4.66666667 Z M6.125,16.3333333 C5.96391695,16.3333333 5.83333333,16.4639169 5.83333333,16.625 L5.83333333,20.7083333 C5.83333333,20.8694164 5.96391695,21 6.125,21 L13.7083333,21 C13.8694164,21 14,20.8694164 14,20.7083333 L14,16.625 C14,16.4639169 13.8694164,16.3333333 13.7083333,16.3333333 L6.125,16.3333333 Z M16.6006944,16.3333333 L16.6006944,16.3333333 C16.453035,16.3333333 16.3333333,16.453035 16.3333333,16.6006944 L16.3333333,23.3333333 L21,23.3333333 L21,16.6006944 C21,16.453035 20.8802984,16.3333333 20.7326389,16.3333333 L16.6006944,16.3333333 Z" id="Combined-Shape" fill="#FFFFFF" fill-rule="nonzero"></path>
                    </g>
                </g>
            </g>
        </g>
    </g>
</svg>